<svg width="17" height="17" viewBox="0 0 17 17" fill="none" xmlns="http://www.w3.org/2000/svg">
<path d="M12.3428 10.7401L16.6681 15.0653C17.1106 15.5079 17.1106 16.2255 16.6681 16.6681C16.2255 17.1106 15.5079 17.1106 15.0653 16.6681L10.7401 12.3428C9.62848 13.1344 8.26861 13.6 6.8 13.6C3.04446 13.6 0 10.5555 0 6.8C0 3.04446 3.04446 0 6.8 0C10.5555 0 13.6 3.04446 13.6 6.8C13.6 8.26861 13.1344 9.62848 12.3428 10.7401ZM6.8 11.3333C9.30369 11.3333 11.3333 9.30369 11.3333 6.8C11.3333 4.29631 9.30369 2.26667 6.8 2.26667C4.29631 2.26667 2.26667 4.29631 2.26667 6.8C2.26667 9.30369 4.29631 11.3333 6.8 11.3333Z" fill="#A9A9A9"/>
</svg>
