<svg width="35" height="40" viewBox="0 0 35 40" fill="none" xmlns="http://www.w3.org/2000/svg">
<g filter="url(#filter0_d_1334_1616)">
<path d="M10.0001 17.9148L8.75015 17.9149L10.0001 17.9148ZM11.0001 29.8542L10.1683 28.9212L11.0001 29.8542ZM18.1456 24.1956L17.3138 25.1286L18.1456 24.1956ZM17.3471 24.1956L16.5152 23.2625L17.3471 24.1956ZM25.4918 29.4064L26.7418 29.4065L25.4918 29.4064ZM24.4926 29.8542L23.6607 30.7872L24.4926 29.8542ZM25.4925 17.9147L24.2425 17.9147L25.4925 17.9147ZM25.4926 16.9334L26.3243 17.8665L25.4926 16.9334ZM25.4926 16.9334L26.3243 17.8665L25.4926 16.9334ZM24.8926 8.75H10.6V11.25H24.8926V8.75ZM26.7426 16.9333V10.6H24.2426V16.9333H26.7426ZM26.3243 17.8665L26.3243 17.8665L24.6609 16.0002L24.6609 16.0002L26.3243 17.8665ZM26.7426 17.9147V16.9334H24.2426V17.9147H26.7426ZM26.7418 29.4065L26.7425 17.9148L24.2425 17.9147L24.2418 29.4063L26.7418 29.4065ZM17.3138 25.1286L23.6607 30.7872L25.3244 28.9212L18.9775 23.2625L17.3138 25.1286ZM11.832 30.7872L18.1789 25.1286L16.5152 23.2625L10.1683 28.9212L11.832 30.7872ZM8.75015 17.9149L8.75083 29.4065L11.2508 29.4063L11.2501 17.9147L8.75015 17.9149ZM8.75 16.9333V17.9146H11.25V16.9333H8.75ZM8.75 10.6V16.9333H11.25V10.6H8.75ZM10.0001 16.6647C10.691 16.6647 11.25 17.2249 11.25 17.9146H8.75C8.75 18.6044 9.30905 19.1647 10.0001 19.1647V16.6647ZM11.2501 17.9147C11.2501 17.2243 10.6904 16.6647 10.0001 16.6647V19.1647C9.30979 19.1647 8.75019 18.6051 8.75015 17.9149L11.2501 17.9147ZM10.1683 28.9212C10.5872 28.5477 11.2508 28.845 11.2508 29.4063L8.75083 29.4065C8.75093 31.004 10.6395 31.8503 11.832 30.7872L10.1683 28.9212ZM18.9775 23.2625C18.2759 22.6371 17.2168 22.6371 16.5152 23.2625L18.1789 25.1286C17.9324 25.3484 17.5603 25.3484 17.3138 25.1286L18.9775 23.2625ZM24.2418 29.4063C24.2419 28.845 24.9054 28.5477 25.3244 28.9212L23.6607 30.7872C24.8531 31.8504 26.7417 31.004 26.7418 29.4065L24.2418 29.4063ZM25.4926 16.6647C24.7879 16.6647 24.2426 17.2387 24.2425 17.9147L26.7425 17.9148C26.7425 18.5907 26.1972 19.1647 25.4926 19.1647V16.6647ZM24.2426 17.9147C24.2426 17.2243 24.8022 16.6647 25.4926 16.6647V19.1647C26.1829 19.1647 26.7426 18.6051 26.7426 17.9147H24.2426ZM24.6609 16.0002C24.3949 16.2373 24.2426 16.5767 24.2426 16.9334H26.7426C26.7426 17.29 26.5903 17.6295 26.3243 17.8665L24.6609 16.0002ZM25.4926 18.1833C24.3441 18.1833 23.8035 16.7644 24.6609 16.0002L26.3243 17.8665C27.1818 17.1023 26.6412 15.6833 25.4926 15.6833V18.1833ZM24.2426 16.9333C24.2426 17.6237 24.8022 18.1833 25.4926 18.1833V15.6833C26.183 15.6833 26.7426 16.2429 26.7426 16.9333H24.2426ZM10.6 8.75C9.57828 8.75 8.75 9.57827 8.75 10.6H11.25C11.25 10.959 10.959 11.25 10.6 11.25V8.75ZM24.8926 11.25C24.5336 11.25 24.2426 10.959 24.2426 10.6H26.7426C26.7426 9.57827 25.9143 8.75 24.8926 8.75V11.25Z" fill="white"/>
</g>
<defs>
<filter id="filter0_d_1334_1616" x="0.75" y="0.75" width="33.9951" height="38.5098" filterUnits="userSpaceOnUse" color-interpolation-filters="sRGB">
<feFlood flood-opacity="0" result="BackgroundImageFix"/>
<feColorMatrix in="SourceAlpha" type="matrix" values="0 0 0 0 0 0 0 0 0 0 0 0 0 0 0 0 0 0 127 0" result="hardAlpha"/>
<feOffset/>
<feGaussianBlur stdDeviation="4"/>
<feComposite in2="hardAlpha" operator="out"/>
<feColorMatrix type="matrix" values="0 0 0 0 0 0 0 0 0 0 0 0 0 0 0 0 0 0 0.25 0"/>
<feBlend mode="normal" in2="BackgroundImageFix" result="effect1_dropShadow_1334_1616"/>
<feBlend mode="normal" in="SourceGraphic" in2="effect1_dropShadow_1334_1616" result="shape"/>
</filter>
</defs>
</svg>
