<svg width="32" height="36" viewBox="0 0 32 36" fill="none" xmlns="http://www.w3.org/2000/svg">
<g filter="url(#filter0_d_1384_1420)">
<path fill-rule="evenodd" clip-rule="evenodd" d="M8 8.6C8 8.26863 8.26863 8 8.6 8H23.4C23.7314 8 24 8.26863 24 8.6L24 14.5787L24 15.5106C24 15.5106 24 15.5106 24 15.5106C24 15.5106 23.9999 15.5107 23.9999 15.5107L23.9992 26.4183C23.9992 26.9246 23.4107 27.2033 23.019 26.8824L16.3802 21.4439C16.1591 21.2627 15.8409 21.2627 15.6198 21.4439L8.981 26.8824C8.58932 27.2033 8.00081 26.9246 8.00077 26.4183L8.00006 15.5107C8.00006 15.5107 8.00005 15.5106 8.00003 15.5106C8.00001 15.5106 8 15.5106 8 15.5106V14.5787V8.6Z" fill="white"/>
</g>
<defs>
<filter id="filter0_d_1384_1420" x="0" y="0" width="32" height="35.0195" filterUnits="userSpaceOnUse" color-interpolation-filters="sRGB">
<feFlood flood-opacity="0" result="BackgroundImageFix"/>
<feColorMatrix in="SourceAlpha" type="matrix" values="0 0 0 0 0 0 0 0 0 0 0 0 0 0 0 0 0 0 127 0" result="hardAlpha"/>
<feOffset/>
<feGaussianBlur stdDeviation="4"/>
<feComposite in2="hardAlpha" operator="out"/>
<feColorMatrix type="matrix" values="0 0 0 0 0 0 0 0 0 0 0 0 0 0 0 0 0 0 0.25 0"/>
<feBlend mode="normal" in2="BackgroundImageFix" result="effect1_dropShadow_1384_1420"/>
<feBlend mode="normal" in="SourceGraphic" in2="effect1_dropShadow_1384_1420" result="shape"/>
</filter>
</defs>
</svg>
