<svg width="114" height="53" viewBox="0 0 114 53" fill="none" xmlns="http://www.w3.org/2000/svg">
<circle cx="29" cy="20" r="20" fill="#F5FF00"/>
<path d="M0 21H26V53L13 43.5L0 53V21Z" fill="#111111"/>
<path d="M52.892 28.348H42.84V26.332H52.892V28.348ZM56.56 21.292H52.892V23.56H42.84V21.292H39.172V31.232H56.56V21.292ZM59.528 35.824V32.884H36.204V35.824H45.976V38.008H38.78V40.92H53.004V46.436H56.7V38.008H49.672V35.824H59.528ZM66.9732 25.968H72.0132V37.224H66.9732V25.968ZM63.3332 40.136H75.6532V23.056H63.3332V40.136ZM86.4892 30.336H82.7372V20.648H79.0412V46.408H82.7372V33.388H86.4892V30.336ZM90.7984 30.476L91.2464 33.472L105.974 32.716C105.806 34.452 105.526 36.328 105.022 38.428L108.662 38.792C109.866 33.192 109.866 29.636 109.866 25.884V22.888H91.5264V25.828H106.226V25.884C106.226 27.2 106.226 28.544 106.17 29.972L90.7984 30.476ZM88.9224 40.332V43.356H112.218V40.332H88.9224Z" fill="black"/>
</svg>
