<svg width="16" height="14" viewBox="0 0 16 14" fill="none" xmlns="http://www.w3.org/2000/svg">
<path opacity="0.8" d="M5.89243 11.2742L5.91686 11.2855L5.94315 11.2914C5.98298 11.3003 6.02238 11.3123 6.06096 11.3275C6.81291 11.6244 7.6296 11.7793 8.47162 11.7793C11.6957 11.7793 14.3679 9.48548 14.3679 6.5882C14.3679 3.69092 11.6957 1.39705 8.47162 1.39705C5.24755 1.39705 2.57533 3.69092 2.57533 6.5882C2.57533 7.58742 2.89558 8.5413 3.48654 9.36268C3.4961 9.37597 3.50488 9.38934 3.5129 9.40276L3.52201 9.418L3.53319 9.43181C3.60911 9.52555 3.6502 9.63505 3.6502 9.7501C3.6502 10.4333 3.39847 11.1555 2.87958 11.9268L2.51348 12.4709L3.1489 12.3086C3.94716 12.1046 4.58524 11.7975 5.05364 11.3832C5.27292 11.1893 5.61853 11.147 5.89243 11.2742ZM2.25218 9.99399L2.26428 9.89973L2.2107 9.82123C1.54755 8.84969 1.19323 7.74007 1.19323 6.5882C1.19323 3.11799 4.41951 0.25 8.47162 0.25C12.5237 0.25 15.75 3.11799 15.75 6.5882C15.75 10.0584 12.5237 12.9264 8.47162 12.9264C7.55326 12.9264 6.65849 12.7778 5.82285 12.4932L5.70465 12.4529L5.60147 12.5233C4.51601 13.263 2.97525 13.6714 0.975352 13.7493C0.647489 13.7621 0.413396 13.5998 0.310617 13.4062C0.210994 13.2185 0.224264 12.9884 0.423717 12.7993C1.52367 11.7563 2.14707 10.8131 2.25218 9.99399Z" fill="#181818" stroke="#181818" stroke-width="0.5"/>
</svg>
