<svg width="20" height="20" viewBox="0 0 20 20" fill="none" xmlns="http://www.w3.org/2000/svg">
<path d="M14.521 12.6354L19.6095 17.7239C20.1302 18.2446 20.1302 19.0888 19.6095 19.6095C19.0888 20.1302 18.2446 20.1302 17.7239 19.6095L12.6354 14.521C11.3276 15.4523 9.72777 16 8 16C3.58172 16 0 12.4183 0 8C0 3.58172 3.58172 0 8 0C12.4183 0 16 3.58172 16 8C16 9.72777 15.4523 11.3276 14.521 12.6354ZM8 13.3333C10.9455 13.3333 13.3333 10.9455 13.3333 8C13.3333 5.05448 10.9455 2.66667 8 2.66667C5.05448 2.66667 2.66667 5.05448 2.66667 8C2.66667 10.9455 5.05448 13.3333 8 13.3333Z" fill="white"/>
</svg>
