<svg width="16" height="14" viewBox="0 0 16 14" fill="none" xmlns="http://www.w3.org/2000/svg">
<path d="M3.17071 10C3.58254 8.83481 4.69378 8 6 8C7.30622 8 8.41746 8.83481 8.82929 10H15C15.5523 10 16 10.4477 16 11C16 11.5523 15.5523 12 15 12H8.82929C8.41746 13.1652 7.30622 14 6 14C4.69378 14 3.58254 13.1652 3.17071 12H1C0.447715 12 0 11.5523 0 11C0 10.4477 0.447715 10 1 10H3.17071ZM7.17071 2C7.58254 0.834808 8.69378 0 10 0C11.3062 0 12.4175 0.834808 12.8293 2H15C15.5523 2 16 2.44772 16 3C16 3.55228 15.5523 4 15 4H12.8293C12.4175 5.16519 11.3062 6 10 6C8.69378 6 7.58254 5.16519 7.17071 4H1C0.447715 4 0 3.55228 0 3C0 2.44772 0.447715 2 1 2H7.17071ZM10 4C10.5523 4 11 3.55228 11 3C11 2.44772 10.5523 2 10 2C9.44772 2 9 2.44772 9 3C9 3.55228 9.44772 4 10 4ZM6 12C6.55228 12 7 11.5523 7 11C7 10.4477 6.55228 10 6 10C5.44772 10 5 10.4477 5 11C5 11.5523 5.44772 12 6 12Z" fill="#181818"/>
</svg>
