<svg width="11" height="14" viewBox="0 0 11 14" fill="none" xmlns="http://www.w3.org/2000/svg">
<path d="M5.16793 13.1021C1.40789 7.89896 0.709961 7.36496 0.709961 5.45271C0.709961 2.83336 2.93447 0.709961 5.67856 0.709961C8.42265 0.709961 10.6472 2.83336 10.6472 5.45271C10.6472 7.36496 9.94923 7.89896 6.18919 13.1021C5.94244 13.4424 5.41465 13.4423 5.16793 13.1021ZM5.67856 7.42886C6.82193 7.42886 7.74881 6.54411 7.74881 5.45271C7.74881 4.36131 6.82193 3.47657 5.67856 3.47657C4.53519 3.47657 3.60831 4.36131 3.60831 5.45271C3.60831 6.54411 4.53519 7.42886 5.67856 7.42886Z" fill="#181818"/>
</svg>
