<svg width="20" height="7" viewBox="0 0 20 7" fill="none" xmlns="http://www.w3.org/2000/svg">
<path d="M10 0C6.21667 0 2.78333 1.40632 0.241667 3.68962C0.0916667 3.83183 0 4.02935 0 4.25056C0 4.47178 0.0916667 4.6693 0.241667 4.80361L2.30833 6.76298C2.45833 6.90519 2.66667 6.9921 2.9 6.9921C3.125 6.9921 3.33333 6.91309 3.48333 6.77088C4.14167 6.19413 4.88333 5.69639 5.7 5.30926C5.975 5.18284 6.16667 4.90632 6.16667 4.59819V2.14898C7.375 1.77765 8.66667 1.58014 10 1.58014C11.3333 1.58014 12.625 1.77765 13.825 2.15688V4.60609C13.825 4.92212 14.0167 5.19074 14.2917 5.31716C15.1083 5.70429 15.8583 6.19413 16.5167 6.77878C16.6667 6.91309 16.875 7 17.1 7C17.3333 7 17.5417 6.91309 17.6917 6.77088L19.7583 4.81151C19.9083 4.6693 20 4.47178 20 4.25056C20 4.02935 19.9083 3.83183 19.7583 3.68962C17.2167 1.40632 13.7833 0 10 0Z" fill="#2C2C2C"/>
</svg>
