<svg width="29" height="29" viewBox="0 0 29 29" fill="none" xmlns="http://www.w3.org/2000/svg">
<path d="M22.6171 14.7902C22.6171 14.0163 23.2445 13.389 24.0184 13.389C24.7922 13.389 25.4196 14.0163 25.4196 14.7902V22.8025C25.4196 23.5835 25.329 24.0525 25.0668 24.5428C24.8141 25.0153 24.4349 25.3945 23.9623 25.6472C23.4721 25.9094 23.0031 26 22.2221 26H6.19751C5.41651 26 4.9475 25.9094 4.45724 25.6472C3.98471 25.3945 3.60548 25.0153 3.35276 24.5428C3.09057 24.0525 3 23.5835 3 22.8025V6.77792C3 5.99692 3.09057 5.52791 3.35276 5.03765C3.60548 4.56511 3.98471 4.18588 4.45724 3.93317C4.9475 3.67098 5.41651 3.58041 6.19751 3.58041H14.2098C14.9837 3.58041 15.611 4.20776 15.611 4.98163C15.611 5.75551 14.9837 6.38286 14.2098 6.38286H6.50306C6.11612 6.38286 5.80245 6.69653 5.80245 7.08347V22.4969C5.80245 22.8839 6.11612 23.1975 6.50306 23.1975H21.9165C22.3035 23.1975 22.6171 22.8839 22.6171 22.4969V14.7902ZM11.6823 16.4697C12.5413 12.9866 13.0535 11.1624 13.219 10.9969L20.2251 3.99082C21.5462 2.66973 23.6881 2.66973 25.0092 3.99082C26.3303 5.3119 26.3303 7.45381 25.0092 8.7749L18.0031 15.781C17.8376 15.9465 16.0134 16.4587 12.5303 17.3177L12.5303 17.3177C12.1546 17.4103 11.775 17.1809 11.6823 16.8052C11.6552 16.695 11.6552 16.5799 11.6823 16.4697ZM23.0276 6.79327C23.2542 6.5666 23.2542 6.19911 23.0276 5.97245C22.8009 5.74578 22.4334 5.74578 22.2067 5.97245L16.4391 11.7401C16.3023 11.8769 16.3023 12.0987 16.4391 12.2355L16.7645 12.5609C16.9013 12.6977 17.1231 12.6977 17.2599 12.5609L23.0276 6.79327Z" fill="#181818"/>
</svg>
