<svg width="29" height="29" viewBox="0 0 29 29" fill="none" xmlns="http://www.w3.org/2000/svg">
<path d="M19.25 9C19.25 6.2375 17.0125 4 14.25 4C11.4875 4 9.25 6.2375 9.25 9C9.25 11.7625 11.4875 14 14.25 14C17.0125 14 19.25 11.7625 19.25 9ZM14.25 11.5C12.875 11.5 11.75 10.375 11.75 9C11.75 7.625 12.875 6.5 14.25 6.5C15.625 6.5 16.75 7.625 16.75 9C16.75 10.375 15.625 11.5 14.25 11.5ZM8 16.5C5.2375 16.5 3 18.7375 3 21.5C3 24.2625 5.2375 26.5 8 26.5C10.7625 26.5 13 24.2625 13 21.5C13 18.7375 10.7625 16.5 8 16.5ZM8 24C6.625 24 5.5 22.875 5.5 21.5C5.5 20.125 6.625 19 8 19C9.375 19 10.5 20.125 10.5 21.5C10.5 22.875 9.375 24 8 24ZM20.5 16.5C17.7375 16.5 15.5 18.7375 15.5 21.5C15.5 24.2625 17.7375 26.5 20.5 26.5C23.2625 26.5 25.5 24.2625 25.5 21.5C25.5 18.7375 23.2625 16.5 20.5 16.5ZM20.5 24C19.125 24 18 22.875 18 21.5C18 20.125 19.125 19 20.5 19C21.875 19 23 20.125 23 21.5C23 22.875 21.875 24 20.5 24Z" fill="black"/>
</svg>
