<svg width="29" height="29" viewBox="0 0 29 29" fill="none" xmlns="http://www.w3.org/2000/svg">
<rect width="29" height="29" fill="white"/>
<mask id="path-2-inside-1_1207_1356" fill="white">
<path fill-rule="evenodd" clip-rule="evenodd" d="M2.729 11.0982C2.26742 11.4781 2 12.0446 2 12.6424V26.8871C2 27.9916 2.89543 28.8871 4 28.8871H11C11.5523 28.8871 12 28.4394 12 27.8871V21.9092C12 20.5285 13.1193 19.4092 14.5 19.4092C15.8807 19.4092 17 20.5285 17 21.9092V27.8871C17 28.4394 17.4477 28.8871 18 28.8871H25C26.1046 28.8871 27 27.9916 27 26.8871V12.6424C27 12.0446 26.7326 11.4781 26.271 11.0982L15.771 2.4558C15.0326 1.84807 13.9674 1.84807 13.229 2.4558L2.729 11.0982Z"/>
</mask>
<path d="M2.729 11.0982L4.2542 12.9512L4.2542 12.9512L2.729 11.0982ZM26.271 11.0982L24.7458 12.9512L26.271 11.0982ZM15.771 2.4558L17.2962 0.602762V0.602762L15.771 2.4558ZM13.229 2.4558L11.7038 0.602762V0.602762L13.229 2.4558ZM4.4 12.6424C4.4 12.7619 4.34652 12.8752 4.2542 12.9512L1.20379 9.24513C0.188331 10.0809 -0.4 11.3272 -0.4 12.6424H4.4ZM4.4 26.8871V12.6424H-0.4V26.8871H4.4ZM4 26.4871C4.22091 26.4871 4.4 26.6662 4.4 26.8871H-0.4C-0.4 29.3171 1.56995 31.2871 4 31.2871V26.4871ZM11 26.4871H4V31.2871H11V26.4871ZM14.4 27.8871V21.9092H9.6V27.8871H14.4ZM14.4 21.9092C14.4 21.854 14.4448 21.8092 14.5 21.8092V17.0092C11.7938 17.0092 9.6 19.203 9.6 21.9092H14.4ZM14.5 21.8092C14.5552 21.8092 14.6 21.854 14.6 21.9092H19.4C19.4 19.203 17.2062 17.0092 14.5 17.0092V21.8092ZM14.6 21.9092V27.8871H19.4V21.9092H14.6ZM25 26.4871H18V31.2871H25V26.4871ZM24.6 26.8871C24.6 26.6662 24.7791 26.4871 25 26.4871V31.2871C27.4301 31.2871 29.4 29.3171 29.4 26.8871H24.6ZM24.6 12.6424V26.8871H29.4V12.6424H24.6ZM24.7458 12.9512C24.6535 12.8752 24.6 12.7619 24.6 12.6424H29.4C29.4 11.3272 28.8117 10.0809 27.7962 9.24513L24.7458 12.9512ZM14.2458 4.30884L24.7458 12.9512L27.7962 9.24513L17.2962 0.602762L14.2458 4.30884ZM14.7542 4.30884C14.6065 4.43039 14.3935 4.43039 14.2458 4.30884L17.2962 0.602762C15.6718 -0.734253 13.3282 -0.734255 11.7038 0.602762L14.7542 4.30884ZM4.2542 12.9512L14.7542 4.30884L11.7038 0.602762L1.20379 9.24513L4.2542 12.9512ZM14.6 27.8871C14.6 29.7648 16.1222 31.2871 18 31.2871V26.4871C18.7732 26.4871 19.4 27.1139 19.4 27.8871H14.6ZM11 31.2871C12.8778 31.2871 14.4 29.7648 14.4 27.8871H9.6C9.6 27.1139 10.2268 26.4871 11 26.4871V31.2871Z" fill="#181818" mask="url(#path-2-inside-1_1207_1356)"/>
</svg>
