<svg width="29" height="29" viewBox="0 0 29 29" fill="none" xmlns="http://www.w3.org/2000/svg">
<rect width="29" height="29" fill="white"/>
<path d="M14.585 1C7.08608 1 1 7.08608 1 14.585C1 22.0839 7.08608 28.17 14.585 28.17C22.0839 28.17 28.17 22.0839 28.17 14.585C28.17 7.08608 22.0839 1 14.585 1ZM7.8876 23.1164C8.47175 21.8937 12.031 20.6983 14.585 20.6983C17.139 20.6983 20.7118 21.8937 21.2824 23.1164C19.4348 24.5836 17.1118 25.453 14.585 25.453C12.0582 25.453 9.73516 24.5836 7.8876 23.1164ZM23.2251 21.1466C21.2824 18.7828 16.5684 17.9813 14.585 17.9813C12.6016 17.9813 7.88759 18.7828 5.94494 21.1466C4.55927 19.3262 3.717 17.0575 3.717 14.585C3.717 8.59402 8.59402 3.717 14.585 3.717C20.576 3.717 25.453 8.59402 25.453 14.585C25.453 17.0575 24.6107 19.3262 23.2251 21.1466ZM14.585 6.434C11.9495 6.434 9.83025 8.55326 9.83025 11.1888C9.83025 13.8242 11.9495 15.9435 14.585 15.9435C17.2205 15.9435 19.3398 13.8242 19.3398 11.1888C19.3398 8.55326 17.2205 6.434 14.585 6.434ZM14.585 13.2265C13.4574 13.2265 12.5473 12.3163 12.5473 11.1888C12.5473 10.0612 13.4574 9.151 14.585 9.151C15.7126 9.151 16.6228 10.0612 16.6228 11.1888C16.6228 12.3163 15.7126 13.2265 14.585 13.2265Z" fill="black"/>
</svg>
