<svg width="18" height="18" viewBox="0 0 18 18" fill="none" xmlns="http://www.w3.org/2000/svg">
<path d="M5 2V1.28194C5 0.836183 5.04641 0.67454 5.13357 0.511577C5.22072 0.348614 5.34861 0.22072 5.51158 0.133566C5.67454 0.0464128 5.83618 0 6.28194 0H11.7181C12.1638 0 12.3255 0.0464128 12.4884 0.133566C12.6514 0.22072 12.7793 0.348614 12.8664 0.511577C12.9536 0.67454 13 0.836183 13 1.28194V2H17C17.5523 2 18 2.44772 18 3C18 3.55228 17.5523 4 17 4H16V14.4361C16 15.3999 15.9008 15.9134 15.6147 16.4484C15.3472 16.9486 14.9486 17.3472 14.4484 17.6147C13.9134 17.9008 13.3999 18 12.4361 18H5.56389C4.6001 18 4.08664 17.9008 3.55156 17.6147C3.05136 17.3472 2.65283 16.9486 2.38532 16.4484C2.09916 15.9134 2 15.3999 2 14.4361V4H1C0.447715 4 0 3.55228 0 3C0 2.44772 0.447715 2 1 2H5ZM4 4V14.4361C4 15.098 4.03892 15.2995 4.14895 15.5052C4.23005 15.6569 4.3431 15.7699 4.49475 15.8511C4.70048 15.9611 4.90203 16 5.56389 16H12.4361C13.098 16 13.2995 15.9611 13.5052 15.8511C13.6569 15.7699 13.7699 15.6569 13.8511 15.5052C13.9611 15.2995 14 15.098 14 14.4361V4H4ZM7 6C7.55228 6 8 6.44772 8 7V13C8 13.5523 7.55228 14 7 14C6.44772 14 6 13.5523 6 13V7C6 6.44772 6.44772 6 7 6ZM11 6C11.5523 6 12 6.44772 12 7V13C12 13.5523 11.5523 14 11 14C10.4477 14 10 13.5523 10 13V7C10 6.44772 10.4477 6 11 6Z" fill="#181818"/>
</svg>
