<svg width="45" height="45" viewBox="0 0 45 45" fill="none" xmlns="http://www.w3.org/2000/svg">
<circle cx="22.5" cy="22.5" r="22.5" fill="#181818"/>
<path d="M20.1382 28.0072L20.1632 28.0192L20.1903 28.0255C20.2493 28.0392 20.3078 28.0577 20.3652 28.0813C21.3886 28.501 22.5009 28.7205 23.6485 28.7205C28.0514 28.7205 31.6621 25.4701 31.6621 21.4117C31.6621 17.3533 28.0514 14.1029 23.6485 14.1029C19.2456 14.1029 15.6348 17.3533 15.6348 21.4117C15.6348 22.8133 16.067 24.153 16.8675 25.309C16.8823 25.3304 16.896 25.3521 16.9086 25.3739L16.9173 25.3891L16.9281 25.4029C17.0459 25.554 17.1128 25.7351 17.1128 25.9287C17.1128 26.9345 16.756 27.988 16.0348 29.1017L15.6827 29.6455L16.3088 29.4793C17.3979 29.1901 18.2607 28.7567 18.8902 28.1783C19.2215 27.874 19.7335 27.812 20.1382 28.0072ZM15.0039 26.2623L15.0152 26.1712L14.9647 26.0944C14.0416 24.6893 13.5469 23.0819 13.5469 21.4117C13.5469 16.3737 18.0466 12.25 23.6485 12.25C29.2503 12.25 33.75 16.3737 33.75 21.4117C33.75 26.4497 29.2503 30.5734 23.6485 30.5734C22.3767 30.5734 21.1372 30.3596 19.979 29.9498L19.8569 29.9066L19.7511 29.9815C18.2389 31.0521 16.1019 31.6373 13.3444 31.7489C12.8644 31.7684 12.5074 31.5209 12.3461 31.2054C12.1867 30.8935 12.2124 30.5082 12.5215 30.2036C14.0312 28.7165 14.8645 27.3914 15.0039 26.2623Z" fill="white" stroke="#181818" stroke-width="0.5"/>
</svg>
