<svg width="36" height="40" viewBox="0 0 36 40" fill="none" xmlns="http://www.w3.org/2000/svg">
<g filter="url(#filter0_d_1161_1864)">
<path d="M13.2004 16.4141V22.621C13.2004 22.9502 13.074 23.266 12.8489 23.4988L11.8096 24.574C11.6924 24.6952 11.6924 24.8917 11.8096 25.0129C11.8659 25.0711 11.9422 25.1038 12.0217 25.1038H23.9791C24.1448 25.1038 24.2791 24.9648 24.2791 24.7934C24.2791 24.7111 24.2475 24.6322 24.1912 24.574L23.1519 23.4988C22.9268 23.266 22.8004 22.9502 22.8004 22.621V16.4141C22.8004 13.6717 20.6514 11.4486 18.0004 11.4486C15.3494 11.4486 13.2004 13.6717 13.2004 16.4141ZM22.6492 27.5865C22.1163 29.7282 20.237 31.3106 18.0004 31.3106C15.7638 31.3106 13.8845 29.7282 13.3516 27.5865H11.2975C9.97198 27.5865 8.89746 26.4749 8.89746 25.1038C8.89746 24.4453 9.15032 23.8138 9.6004 23.3482L10.8004 22.1068V16.4141C10.8004 12.3005 14.024 8.96582 18.0004 8.96582C21.9769 8.96582 25.2004 12.3005 25.2004 16.4141V22.1068L26.4004 23.3482C27.3377 24.3178 27.3377 25.8897 26.4004 26.8593C25.9503 27.3249 25.3399 27.5865 24.7033 27.5865H22.6492ZM15.9215 27.5865C16.3365 28.3286 17.1121 28.8279 18.0004 28.8279C18.8887 28.8279 19.6644 28.3286 20.0793 27.5865H15.9215Z" fill="white"/>
</g>
<defs>
<filter id="filter0_d_1161_1864" x="-2" y="-0.275391" width="40" height="40.8276" filterUnits="userSpaceOnUse" color-interpolation-filters="sRGB">
<feFlood flood-opacity="0" result="BackgroundImageFix"/>
<feColorMatrix in="SourceAlpha" type="matrix" values="0 0 0 0 0 0 0 0 0 0 0 0 0 0 0 0 0 0 127 0" result="hardAlpha"/>
<feOffset/>
<feGaussianBlur stdDeviation="4"/>
<feComposite in2="hardAlpha" operator="out"/>
<feColorMatrix type="matrix" values="0 0 0 0 0 0 0 0 0 0 0 0 0 0 0 0 0 0 0.25 0"/>
<feBlend mode="normal" in2="BackgroundImageFix" result="effect1_dropShadow_1161_1864"/>
<feBlend mode="normal" in="SourceGraphic" in2="effect1_dropShadow_1161_1864" result="shape"/>
</filter>
</defs>
</svg>
