<svg width="24" height="26" viewBox="0 0 24 26" fill="none" xmlns="http://www.w3.org/2000/svg">
<path d="M7.2004 9.41422V15.6211C7.2004 15.9503 7.07398 16.2661 6.84893 16.4989L5.80959 17.5741C5.69244 17.6953 5.69244 17.8918 5.80959 18.013C5.86585 18.0712 5.94216 18.1039 6.02172 18.1039H17.9791C18.1448 18.1039 18.2791 17.9649 18.2791 17.7935C18.2791 17.7112 18.2475 17.6323 18.1912 17.5741L17.1519 16.4989C16.9268 16.2661 16.8004 15.9503 16.8004 15.6211V9.41422C16.8004 6.67184 14.6514 4.4487 12.0004 4.4487C9.34944 4.4487 7.2004 6.67184 7.2004 9.41422ZM16.6492 20.5866C16.1163 22.7283 14.237 24.3108 12.0004 24.3108C9.7638 24.3108 7.88448 22.7283 7.35163 20.5866H5.29746C3.97198 20.5866 2.89746 19.4751 2.89746 18.1039C2.89746 17.4454 3.15032 16.8139 3.6004 16.3483L4.8004 15.1069V9.41422C4.8004 5.30065 8.02395 1.96594 12.0004 1.96594C15.9769 1.96594 19.2004 5.30065 19.2004 9.41422V15.1069L20.4004 16.3483C21.3377 17.3179 21.3377 18.8899 20.4004 19.8594C19.9503 20.3251 19.3399 20.5866 18.7033 20.5866H16.6492ZM9.92148 20.5866C10.3365 21.3287 11.1121 21.828 12.0004 21.828C12.8887 21.828 13.6644 21.3287 14.0793 20.5866H9.92148Z" fill="#222222"/>
</svg>
