<svg width="11" height="14" viewBox="0 0 11 14" fill="none" xmlns="http://www.w3.org/2000/svg">
<path d="M4.93476 13.7175C0.772578 7.95788 0 7.36676 0 5.25C0 2.3505 2.46242 0 5.5 0C8.53758 0 11 2.3505 11 5.25C11 7.36676 10.2274 7.95788 6.06524 13.7175C5.7921 14.0942 5.20787 14.0941 4.93476 13.7175ZM5.5 7.4375C6.76566 7.4375 7.79167 6.45813 7.79167 5.25C7.79167 4.04187 6.76566 3.0625 5.5 3.0625C4.23434 3.0625 3.20833 4.04187 3.20833 5.25C3.20833 6.45813 4.23434 7.4375 5.5 7.4375Z" fill="white"/>
</svg>
