<svg width="15" height="15" viewBox="0 0 15 15" fill="none" xmlns="http://www.w3.org/2000/svg">
<path d="M7.5 1.875C8.53125 1.875 9.375 2.71875 9.375 3.75C9.375 4.78125 8.53125 5.625 7.5 5.625C6.46875 5.625 5.625 4.78125 5.625 3.75C5.625 2.71875 6.46875 1.875 7.5 1.875ZM7.5 10.3125C10.0312 10.3125 12.9375 11.5219 13.125 12.1875V13.125H1.875V12.1969C2.0625 11.5219 4.96875 10.3125 7.5 10.3125ZM7.5 0C5.42812 0 3.75 1.67812 3.75 3.75C3.75 5.82188 5.42812 7.5 7.5 7.5C9.57187 7.5 11.25 5.82188 11.25 3.75C11.25 1.67812 9.57187 0 7.5 0ZM7.5 8.4375C4.99687 8.4375 0 9.69375 0 12.1875V15H15V12.1875C15 9.69375 10.0031 8.4375 7.5 8.4375Z" fill="#181818"/>
</svg>
