<svg width="29" height="29" viewBox="0 0 29 29" fill="none" xmlns="http://www.w3.org/2000/svg">
<rect width="29" height="29" fill="white"/>
<path d="M15 5.83493L15.3798 5.4101C18.0298 2.44613 22.5947 2.17915 25.5759 4.8138C28.5571 7.44844 28.8256 11.987 26.1757 14.951L17.1592 25.036C16.0992 26.2215 14.2732 26.3283 13.0807 25.2745C12.9961 25.1997 12.916 25.1201 12.8408 25.036L3.82433 14.951C1.17438 11.987 1.44291 7.44844 4.4241 4.8138C7.40529 2.17915 11.9702 2.44613 14.6202 5.4101L15 5.83493ZM14.7301 9.85626L12.461 7.31828C10.871 5.53989 8.13208 5.37971 6.34336 6.96049C4.55465 8.54128 4.39353 11.2644 5.9835 13.0428L14.7301 22.8259C14.8626 22.9741 15.0908 22.9875 15.2399 22.8557C15.2505 22.8464 15.2605 22.8364 15.2699 22.8259L24.0165 13.0428C25.6065 11.2644 25.4454 8.54128 23.6566 6.96049C21.8679 5.37971 19.129 5.53989 17.539 7.31828L15.2699 9.85626C15.1374 10.0045 14.9092 10.0178 14.7601 9.88608C14.7495 9.87673 14.7395 9.86678 14.7301 9.85626Z" fill="#181818"/>
</svg>
